<svg width="1200" height="720" viewBox="0 0 1200 720" xmlns="http://www.w3.org/2000/svg" role="img" aria-labelledby="title desc">
  <title id="title">Paleta de colores de GymTrack</title><desc id="desc">Muestra de fondos, superficies, textos, acentos y estados tomados de los tokens del frontend.</desc>
  <rect width="1200" height="720" rx="32" fill="#0B0E12"/>
  <text x="56" y="76" fill="#F4F7F9" font-family="Manrope, Arial, sans-serif" font-size="38" font-weight="800">Paleta GymTrack</text>
  <text x="56" y="110" fill="#AEB9C5" font-family="Manrope, Arial, sans-serif" font-size="17">Tokens reales del sistema visual</text>
  <g font-family="Manrope, Arial, sans-serif" font-size="15" font-weight="700">
    <g transform="translate(56 154)"><rect width="250" height="100" rx="14" fill="#10151B"/><text x="20" y="42" fill="#F4F7F9">Fondo sutil</text><text x="20" y="70" fill="#AEB9C5">#10151B</text></g>
    <g transform="translate(326 154)"><rect width="250" height="100" rx="14" fill="#141A21" stroke="#27313D"/><text x="20" y="42" fill="#F4F7F9">Superficie 1</text><text x="20" y="70" fill="#AEB9C5">#141A21</text></g>
    <g transform="translate(596 154)"><rect width="250" height="100" rx="14" fill="#19212B" stroke="#394757"/><text x="20" y="42" fill="#F4F7F9">Superficie 2</text><text x="20" y="70" fill="#AEB9C5">#19212B</text></g>
    <g transform="translate(866 154)"><rect width="250" height="100" rx="14" fill="#202A35"/><text x="20" y="42" fill="#F4F7F9">Superficie elevada</text><text x="20" y="70" fill="#AEB9C5">#202A35</text></g>
    <g transform="translate(56 278)"><rect width="250" height="100" rx="14" fill="#0969DA"/><text x="20" y="42" fill="#FFFFFF">Acción</text><text x="20" y="70" fill="#FFFFFF">#0969DA</text></g>
    <g transform="translate(326 278)"><rect width="250" height="100" rx="14" fill="#68B6FF"/><text x="20" y="42" fill="#101317">Información</text><text x="20" y="70" fill="#101317">#68B6FF</text></g>
    <g transform="translate(596 278)"><rect width="250" height="100" rx="14" fill="#79BAFF"/><text x="20" y="42" fill="#101317">Foco</text><text x="20" y="70" fill="#101317">#79BAFF</text></g>
    <g transform="translate(866 278)"><rect width="250" height="100" rx="14" fill="#F3F6F8"/><text x="20" y="42" fill="#101317">Superficie inversa</text><text x="20" y="70" fill="#101317">#F3F6F8</text></g>
    <g transform="translate(56 402)"><rect width="250" height="100" rx="14" fill="#43C17A"/><text x="20" y="42" fill="#101317">Éxito</text><text x="20" y="70" fill="#101317">#43C17A</text></g>
    <g transform="translate(326 402)"><rect width="250" height="100" rx="14" fill="#F3AD4E"/><text x="20" y="42" fill="#101317">Advertencia</text><text x="20" y="70" fill="#101317">#F3AD4E</text></g>
    <g transform="translate(596 402)"><rect width="250" height="100" rx="14" fill="#F36B6B"/><text x="20" y="42" fill="#101317">Peligro</text><text x="20" y="70" fill="#101317">#F36B6B</text></g>
    <g transform="translate(866 402)"><rect width="250" height="100" rx="14" fill="#27313D"/><text x="20" y="42" fill="#F4F7F9">Borde sutil</text><text x="20" y="70" fill="#AEB9C5">#27313D</text></g>
  </g>
  <g font-family="Manrope, Arial, sans-serif"><text x="56" y="572" fill="#F4F7F9" font-size="28" font-weight="800">Texto primario · #F4F7F9</text><text x="56" y="612" fill="#AEB9C5" font-size="22">Texto secundario · #AEB9C5</text><text x="56" y="648" fill="#7F8B98" font-size="18">Texto terciario · #7F8B98</text></g>
  <circle cx="1030" cy="606" r="54" fill="#0077FF"/><circle cx="1090" cy="606" r="38" fill="#00BFFF"/><circle cx="976" cy="606" r="28" fill="#38BDF8"/>
</svg>
